<?xml version="1.0" encoding="utf-8"?>
<!-- Generator: Adobe Illustrator 26.3.1, SVG Export Plug-In . SVG Version: 6.00 Build 0)  -->
<svg version="1.1" id="レイヤー_1" xmlns="http://www.w3.org/2000/svg" xmlns:xlink="http://www.w3.org/1999/xlink" x="0px"
	 y="0px" viewBox="0 0 40 40" enable-background="new 0 0 40 40" xml:space="preserve">
<g>
	<path fill="#FFFFFF" d="M12.912,18.56c-0.009,0.002-0.019,0.003-0.028,0.005l-4.376,0.806c-0.987,0.182-1.934-0.47-2.117-1.456
		L4.553,8.026C4.37,7.042,5.018,6.095,6.001,5.908l4.064-0.773C12.288,4.72,14.103,5,15.468,5.966
		c1.314,0.919,2.184,2.457,2.578,4.566c0.419,2.239,0.142,4.087-0.823,5.491C16.319,17.341,14.868,18.194,12.912,18.56z
		 M11.197,13.71l0.115-0.022c0.859-0.161,1.219-0.404,1.289-0.511c0.025-0.036,0.258-0.396,0.001-1.645
		c-0.227-1.102-0.521-1.358-0.524-1.361c-0.034-0.021-0.373-0.186-1.483,0.022l-0.054,0.01L11.197,13.71z"/>
	<path fill="#606060" d="M12.555,16.777l-4.377,0.806L6.341,7.695l4.063-0.773c1.722-0.322,3.059-0.146,4.013,0.529
		c0.922,0.646,1.536,1.785,1.841,3.416C16.889,14.236,15.654,16.206,12.555,16.777z M10.26,8.407L8.419,8.751l1.324,7.081
		l1.903-0.356c1.228-0.23,2.051-0.661,2.47-1.293c0.456-0.665,0.544-1.671,0.267-3.017c-0.27-1.305-0.718-2.151-1.344-2.537
		C12.455,8.243,11.529,8.17,10.26,8.407z"/>
</g>
<g>
	<path fill="#FFFFFF" d="M29.822,18.245l-1.406-0.515c-0.515-0.189-0.86-0.676-0.867-1.224l-0.014-1.173l-1.304-0.482l-0.785,0.892
		c-0.36,0.41-0.934,0.556-1.446,0.369l-1.355-0.496c-0.414-0.152-0.725-0.5-0.829-0.929c-0.104-0.428,0.013-0.88,0.311-1.205
		l5.336-5.806c0.361-0.394,0.924-0.53,1.426-0.347l1.483,0.543c0.5,0.183,0.841,0.649,0.865,1.18l0.357,7.891
		c0.02,0.441-0.183,0.863-0.538,1.125C30.701,18.331,30.237,18.397,29.822,18.245z"/>
	<path fill="#606060" d="M25.838,13.298l-1.384,1.574L23.1,14.376l5.336-5.806l1.483,0.543l0.357,7.891l-1.406-0.515l-0.025-2.081
		L25.838,13.298z M28.829,13.284L28.8,10.045l-0.086-0.031l-2.14,2.445L28.829,13.284z"/>
</g>
<g>
	<path fill="#FFFFFF" d="M31.721,30.103l-1.342,0.587c-0.492,0.215-1.064,0.104-1.44-0.279l-0.803-0.819l-1.247,0.542l0.049,1.161
		c0.023,0.533-0.284,1.025-0.773,1.239L24.873,33.1c-0.395,0.173-0.851,0.137-1.214-0.095c-0.363-0.232-0.586-0.631-0.595-1.062
		l-0.157-7.711c-0.011-0.523,0.294-1,0.773-1.21l1.415-0.619c0.477-0.209,1.033-0.111,1.41,0.249l5.59,5.334
		c0.312,0.298,0.455,0.734,0.38,1.159C32.401,29.57,32.117,29.93,31.721,30.103z"/>
	<path fill="#606060" d="M25.561,29.303l0.087,2.048l-1.293,0.566l-0.157-7.711l1.416-0.619l5.59,5.334l-1.342,0.587l-1.425-1.453
		L25.561,29.303z M27.665,27.271l-2.211-2.269l-0.082,0.036l0.141,3.175L27.665,27.271z"/>
</g>
<g>
	<path fill="#FFFFFF" d="M11.168,34.098L9.79,33.807c-0.729-0.154-1.195-0.87-1.041-1.599l1.028-4.869l-1.309-0.276
		c-0.729-0.154-1.195-0.87-1.041-1.599l0.231-1.095c0.154-0.729,0.87-1.195,1.599-1.041l6.682,1.411
		c0.729,0.154,1.195,0.87,1.041,1.599l-0.231,1.095c-0.154,0.729-0.87,1.195-1.599,1.041l-1.354-0.286l-1.028,4.869
		C12.614,33.786,11.897,34.252,11.168,34.098z"/>
	<path fill="#606060" d="M12.754,26.589l-1.307,6.189l-1.378-0.291l1.307-6.189l-2.629-0.555l0.231-1.095l6.682,1.411l-0.231,1.095
		L12.754,26.589z"/>
</g>
</svg>
